<svg width="14" height="8" viewBox="0 0 14 8" fill="none" xmlns="http://www.w3.org/2000/svg">
<path id="SF Symbol / chevron.right" d="M6.56615 7.5C6.86561 7.5 7.11394 7.39971 7.34766 7.18577L12.8475 2.03773C13.0374 1.8639 13.125 1.65664 13.125 1.40926C13.125 0.907832 12.6941 0.5 12.1463 0.5C11.876 0.5 11.6277 0.606972 11.4305 0.787488L6.57346 5.36055L1.7018 0.787488C1.50459 0.606972 1.26357 0.499999 0.98602 0.499999C0.438232 0.499999 9.35847e-07 0.907831 9.13929e-07 1.40926C9.03116e-07 1.65664 0.0949516 1.8639 0.284851 2.03773L5.78464 7.18577C6.01836 7.4064 6.26669 7.5 6.56615 7.5Z" fill="black"/>
</svg>
