<svg width="32" height="33" viewBox="0 0 32 33" fill="none" xmlns="http://www.w3.org/2000/svg">
<g id="Actions / Controls / pause--filled / 32">
<path id="Fill" fill-rule="evenodd" clip-rule="evenodd" d="M12 6.5H10C8.89543 6.5 8 7.39543 8 8.5V24.5C8 25.6046 8.89543 26.5 10 26.5H12C13.1046 26.5 14 25.6046 14 24.5V8.5C14 7.39543 13.1046 6.5 12 6.5ZM22 6.5H20C18.8954 6.5 18 7.39543 18 8.5V24.5C18 25.6046 18.8954 26.5 20 26.5H22C23.1046 26.5 24 25.6046 24 24.5V8.5C24 7.39543 23.1046 6.5 22 6.5Z" fill="white"/>
</g>
</svg>
