<svg width="32" height="33" viewBox="0 0 32 33" fill="none" xmlns="http://www.w3.org/2000/svg">
<g id="Actions / Controls / volume--mute--filled / 32">
<path id="Fill" fill-rule="evenodd" clip-rule="evenodd" d="M31 12.9096L29.59 11.4996L26 15.0896L22.41 11.4996L21 12.9096L24.59 16.4996L21 20.0896L22.41 21.4996L26 17.9096L29.59 21.4996L31 20.0896L27.41 16.4996L31 12.9096ZM18 30.4996C17.7328 30.4985 17.4771 30.3904 17.29 30.1996L9.67 22.4996H3C2.44772 22.4996 2 22.0519 2 21.4996V11.4996C2 10.9473 2.44772 10.4996 3 10.4996H9.67L17.29 2.79958C17.68 2.41186 18.31 2.41186 18.7 2.79958C18.8884 2.98421 18.9962 3.23581 19 3.49958V29.4996C19 30.0519 18.5523 30.4996 18 30.4996Z" fill="white"/>
</g>
</svg>
