<svg width="16" height="17" viewBox="0 0 16 17" fill="none" xmlns="http://www.w3.org/2000/svg">
<g id="Actions / Operations / renew / 16">
<path id="Fill" fill-rule="evenodd" clip-rule="evenodd" d="M6 5.50019H3.39C4.71807 3.45916 7.23016 2.53437 9.56462 3.22708C11.8991 3.9198 13.5002 6.06512 13.5 8.50019H14.5C14.5028 5.76045 12.7874 3.3131 10.2111 2.38113C7.63474 1.44916 4.75062 2.2327 3 4.34019V2.50019H2V6.50019H6V5.50019ZM10 11.5002H12.61C11.2819 13.5412 8.76985 14.466 6.43539 13.7733C4.10092 13.0806 2.49985 10.9353 2.5 8.50019H1.5C1.49718 11.2399 3.21256 13.6873 5.78892 14.6193C8.36527 15.5512 11.2494 14.7677 13 12.6602V14.5002H14V10.5002H10V11.5002Z" fill="black"/>
</g>
</svg>
